<svg width="55" height="55" viewBox="0 0 55 55" fill="none" xmlns="http://www.w3.org/2000/svg">
<path fill-rule="evenodd" clip-rule="evenodd" d="M27.783 2.80347C13.6589 2.80347 2.20581 14.2541 2.20581 28.3806C2.20581 39.6817 9.53445 49.2687 19.697 52.6512C20.9749 52.8883 21.4442 52.0963 21.4442 51.4207C21.4442 50.8108 21.4205 48.796 21.4094 46.6588C14.2938 48.206 12.7924 43.641 12.7924 43.641C11.6289 40.6847 9.95249 39.8986 9.95249 39.8986C7.63145 38.3111 10.1274 38.3442 10.1274 38.3442C12.6954 38.5242 14.0482 40.9799 14.0482 40.9799C16.3294 44.8892 20.0316 43.7592 21.4912 43.1061C21.7207 41.453 22.3836 40.3242 23.1151 39.6855C17.434 39.0396 11.4616 36.8461 11.4616 27.0456C11.4616 24.2532 12.4612 21.9715 14.0973 20.1799C13.8313 19.5361 12.9559 16.9347 14.3447 13.4116C14.3447 13.4116 16.4921 12.7242 21.3798 16.0334C23.4204 15.4663 25.6089 15.1812 27.783 15.1715C29.9558 15.1812 32.1455 15.4654 34.19 16.0325C39.0718 12.7234 41.2166 13.4108 41.2166 13.4108C42.6088 16.9334 41.7333 19.5353 41.4678 20.1791C43.1078 21.9707 44.1001 24.2523 44.1001 27.0448C44.1001 36.8685 38.1167 39.0312 32.4212 39.6648C33.3391 40.4585 34.1565 42.0155 34.1565 44.4013C34.1565 47.8236 34.1269 50.5779 34.1269 51.4203C34.1269 52.101 34.5877 52.8985 35.8837 52.6473C46.0404 49.2615 53.3606 39.6775 53.3606 28.3806C53.3601 14.2549 41.9083 2.80347 27.783 2.80347Z" fill="#D5FF3F"/>
<path d="M11.8913 39.5262C11.8349 39.6533 11.635 39.6914 11.4529 39.6046C11.2665 39.5216 11.1628 39.3483 11.2229 39.2208C11.278 39.0895 11.4783 39.0536 11.6634 39.1412C11.8498 39.2247 11.9556 39.3996 11.8908 39.5267L11.8913 39.5262ZM12.9273 40.6821C12.8057 40.7952 12.5672 40.7427 12.4054 40.5635C12.2377 40.3856 12.2064 40.1471 12.3305 40.0324C12.4567 39.9197 12.688 39.9731 12.8557 40.151C13.0226 40.3314 13.0556 40.5677 12.9277 40.6825L12.9273 40.6821ZM13.9361 42.1548C13.7794 42.264 13.5228 42.162 13.3644 41.9345C13.2076 41.7066 13.2076 41.4335 13.3686 41.3246C13.5266 41.2153 13.7794 41.314 13.9404 41.5393C14.0962 41.7702 14.0962 42.0438 13.9361 42.1548ZM15.3173 43.5783C15.1776 43.7329 14.8785 43.6914 14.66 43.4809C14.4368 43.2746 14.3745 42.9811 14.5147 42.8269C14.657 42.6719 14.9573 42.7151 15.1771 42.9243C15.4003 43.1302 15.4677 43.4241 15.3182 43.5779L15.3173 43.5783ZM17.2233 44.4046C17.161 44.605 16.8739 44.696 16.5837 44.6105C16.2945 44.5228 16.1051 44.2886 16.1644 44.0861C16.2237 43.8841 16.513 43.7897 16.8048 43.8807C17.0941 43.968 17.2834 44.2009 17.2233 44.4046ZM19.3169 44.5575C19.3241 44.7685 19.0784 44.943 18.7747 44.9472C18.4685 44.9544 18.2207 44.7833 18.2178 44.5758C18.2178 44.3627 18.4584 44.1903 18.7642 44.1844C19.0678 44.1789 19.3173 44.3483 19.3173 44.5571L19.3169 44.5575ZM21.2644 44.2263C21.3008 44.4317 21.0894 44.6431 20.7874 44.6994C20.491 44.7545 20.2157 44.6266 20.1775 44.4229C20.1411 44.2119 20.3563 44.0006 20.6528 43.9459C20.9552 43.8938 21.2262 44.0175 21.2644 44.2263Z" fill="#D5FF3F"/>
</svg>
