<svg width="55" height="55" viewBox="0 0 55 55" fill="none" xmlns="http://www.w3.org/2000/svg">
<path d="M46.3465 5.15998H8.08038C7.65023 5.15401 7.22312 5.23283 6.82344 5.39194C6.42375 5.55105 6.05933 5.78733 5.75097 6.0873C5.44262 6.38726 5.19637 6.74503 5.0263 7.14017C4.85623 7.53532 4.76566 7.96009 4.75977 8.39024V47.1081C4.76566 47.5382 4.85623 47.963 5.0263 48.3582C5.19637 48.7533 5.44262 49.1111 5.75097 49.411C6.05933 49.711 6.42375 49.9473 6.82344 50.1064C7.22312 50.2655 7.65023 50.3443 8.08038 50.3383H46.3465C46.7766 50.3443 47.2037 50.2655 47.6034 50.1064C48.0031 49.9473 48.3675 49.711 48.6759 49.411C48.9842 49.1111 49.2305 48.7533 49.4005 48.3582C49.5706 47.963 49.6612 47.5382 49.6671 47.1081V8.39024C49.6612 7.96009 49.5706 7.53532 49.4005 7.14017C49.2305 6.74503 48.9842 6.38726 48.6759 6.0873C48.3675 5.78733 48.0031 5.55105 47.6034 5.39194C47.2037 5.23283 46.7766 5.15401 46.3465 5.15998ZM18.381 42.9743H11.6043V22.644H18.381V42.9743ZM14.9927 19.7978C14.0581 19.7978 13.1617 19.4265 12.5009 18.7656C11.84 18.1048 11.4688 17.2085 11.4688 16.2739C11.4688 15.3393 11.84 14.4429 12.5009 13.7821C13.1617 13.1212 14.0581 12.7499 14.9927 12.7499C15.4889 12.6937 15.9915 12.7428 16.4675 12.8943C16.9434 13.0457 17.382 13.2959 17.7545 13.6286C18.1271 13.9613 18.4251 14.3689 18.6292 14.8247C18.8333 15.2806 18.9388 15.7744 18.9388 16.2739C18.9388 16.7733 18.8333 17.2671 18.6292 17.723C18.4251 18.1789 18.1271 18.5865 17.7545 18.9191C17.382 19.2518 16.9434 19.5021 16.4675 19.6535C15.9915 19.8049 15.4889 19.8541 14.9927 19.7978ZM42.8225 42.9743H36.0458V32.0637C36.0458 29.3304 35.0744 27.5459 32.6122 27.5459C31.8502 27.5514 31.1082 27.7905 30.4862 28.2307C29.8642 28.671 29.3921 29.2913 29.1335 30.0081C28.9567 30.539 28.8801 31.0982 28.9076 31.6571V42.9517H22.1308C22.1308 42.9517 22.1308 24.4737 22.1308 22.6214H28.9076V25.4902C29.5232 24.422 30.4186 23.542 31.4973 22.9449C32.576 22.3478 33.7972 22.0564 35.0293 22.1019C39.5471 22.1019 42.8225 25.0159 42.8225 31.2731V42.9743Z" fill="#D5FF3F"/>
</svg>
